<svg width="180" height="40" viewBox="0 0 180 40" fill="none" xmlns="http://www.w3.org/2000/svg">
<g clip-path="url(#clip0_7_785)">
<path d="M5.54791 24.4928V0L26.9896 12.2872C26.8972 20.5496 26.8048 28.8147 26.7124 37.0824L21.0911 33.8461L20.9892 15.5195L11.1692 9.92135C11.1692 15.9853 11.1584 22.0478 11.1366 28.1091L5.54791 24.4928Z" fill="#07083F"/>
<path d="M0 27.4146V2.92188L21.4376 15.2091C21.3479 23.4714 21.2555 31.7365 21.1604 40.0043L15.5432 36.768L15.4372 18.4413L5.62131 12.8432L5.58462 31.0309L0 27.4146Z" fill="#F38831"/>
<path d="M38.2526 26.0578C40.0625 27.1284 43.9799 28.1581 47.1757 28.1581C49.8131 28.1581 51.9451 27.4512 52.0022 25.4612C52.1285 21.187 37.4944 23.4181 37.262 14.8371C37.099 9.05914 41.8683 7.22852 46.9597 7.22852C49.837 7.24743 52.6902 7.75592 55.3978 8.73227L53.7142 12.9533C51.4976 12.115 49.1532 11.6671 46.7844 11.6294C44.2571 11.6294 42.1781 12.3199 42.1781 14.2732C42.1781 18.5637 57.1017 16.2836 57.065 25.118C57.0283 30.9327 51.9329 32.8164 46.5887 32.8164C42.92 32.8164 39.129 31.9093 36.7606 30.806L38.2526 26.0578Z" fill="#07083F"/>
<path d="M98.86 8.36816L92.7006 19.4132L86.5208 8.36816H81.0911H81.087H74.8257L65.1607 17.9994V8.36816H60.3383V32.7915H65.1607V23.9571L67.2926 21.8363L76.0894 32.7915H82.5545L70.8309 18.8493L81.087 8.37225L90.2955 23.7569V32.7016H95.1382V23.7405L104.314 8.36816H98.86Z" fill="#07083F"/>
<path d="M125.422 32.7915H107.575V8.36816H112.381V28.6276H125.422V32.7915Z" fill="#07083F"/>
<path d="M133.525 8.36816H128.683V32.7956H133.525V8.36816Z" fill="#07083F"/>
<path d="M158.713 32.7918H154.107L141.609 16.2058V32.7918H136.786V8.38477H141.499L153.891 24.7705V8.38477H158.713V32.7918Z" fill="#07083F"/>
<path d="M161.974 32.7915V8.36816H179.389V12.2787H166.797V18.1792H178.141V22.0897H166.797V28.9014H180V32.7915H161.974Z" fill="#07083F"/>
</g>
<defs>
<clipPath id="clip0_7_785">
<rect width="180" height="40" fill="white"/>
</clipPath>
</defs>
</svg>
